<mxfile host="app.diagrams.net" modified="2023-05-29T19:01:54.802Z" agent="Mozilla/5.0 (X11; Linux x86_64) AppleWebKit/537.36 (KHTML, like Gecko) Chrome/111.0.0.0 Safari/537.36" etag="-22K4yBQJHmqO3-wAJrG" version="21.3.5" type="google">
  <diagram name="Page-1" id="wMc44pVIzfJoAfrZTQPt">
    <mxGraphModel grid="1" page="1" gridSize="10" guides="1" tooltips="1" connect="1" arrows="1" fold="1" pageScale="1" pageWidth="1100" pageHeight="850" math="0" shadow="0">
      <root>
        <mxCell id="0" />
        <mxCell id="1" parent="0" />
        <mxCell id="02mpYMol-yFJUjh7Pp58-1" value="Text" style="text;html=1;align=center;verticalAlign=middle;resizable=0;points=[];autosize=1;strokeColor=none;fillColor=none;" vertex="1" parent="1">
          <mxGeometry x="846" y="1115" width="50" height="30" as="geometry" />
        </mxCell>
        <mxCell id="02mpYMol-yFJUjh7Pp58-2" value="&lt;font style=&quot;font-size: 48px;&quot;&gt;&lt;br&gt;&lt;br&gt;Set Square 1+ Set Square 2.&lt;br&gt;16 ×16 + 29×29&lt;br&gt;&lt;p id=&quot;docs-internal-guid-4f3ada5f-7fff-c7f6-3ac1-adb440bd168a&quot; style=&quot;line-height: 1.38; margin-top: 0pt; margin-bottom: 0pt;&quot; dir=&quot;ltr&quot;&gt;=256+&lt;span style=&quot;background-color: transparent; font-family: Arial;&quot;&gt;&lt;font color=&quot;#ffffff&quot;&gt;841&lt;/font&gt;&lt;/span&gt;&lt;/p&gt;&lt;p id=&quot;docs-internal-guid-4f3ada5f-7fff-c7f6-3ac1-adb440bd168a&quot; style=&quot;line-height: 1.38; margin-top: 0pt; margin-bottom: 0pt;&quot; dir=&quot;ltr&quot;&gt;&lt;br&gt;&lt;/p&gt;&lt;/font&gt;" style="whiteSpace=wrap;html=1;" vertex="1" parent="1">
          <mxGeometry x="-530" y="870" width="660" height="320" as="geometry" />
        </mxCell>
        <mxCell id="02mpYMol-yFJUjh7Pp58-4" value="Text" style="text;html=1;align=center;verticalAlign=middle;resizable=0;points=[];autosize=1;strokeColor=none;fillColor=none;" vertex="1" parent="1">
          <mxGeometry x="1810" y="1130" width="50" height="30" as="geometry" />
        </mxCell>
        <mxCell id="02mpYMol-yFJUjh7Pp58-5" value="Text" style="text;html=1;align=center;verticalAlign=middle;resizable=0;points=[];autosize=1;strokeColor=none;fillColor=none;" vertex="1" parent="1">
          <mxGeometry x="-30" y="2670" width="50" height="30" as="geometry" />
        </mxCell>
        <mxCell id="02mpYMol-yFJUjh7Pp58-8" style="edgeStyle=orthogonalEdgeStyle;rounded=0;orthogonalLoop=1;jettySize=auto;html=1;entryX=0.393;entryY=0;entryDx=0;entryDy=0;entryPerimeter=0;" edge="1" parent="1">
          <mxGeometry relative="1" as="geometry">
            <mxPoint x="2720.0699999999997" y="858" as="targetPoint" />
            <mxPoint x="3105.470108090806" y="406.55188385191286" as="sourcePoint" />
            <Array as="points">
              <mxPoint x="3100.0299999999997" y="168" />
              <mxPoint x="3100.0299999999997" y="-132" />
              <mxPoint x="2970.0299999999997" y="-132" />
              <mxPoint x="2970.0299999999997" y="288" />
              <mxPoint x="2700.0299999999997" y="288" />
            </Array>
          </mxGeometry>
        </mxCell>
        <mxCell id="7OIDryC-Md_JNg6_eW2P-1" value="Text" style="edgeLabel;html=1;align=center;verticalAlign=middle;resizable=0;points=[];" connectable="0" vertex="1" parent="02mpYMol-yFJUjh7Pp58-8">
          <mxGeometry x="0.7354" y="11" relative="1" as="geometry">
            <mxPoint as="offset" />
          </mxGeometry>
        </mxCell>
        <mxCell id="02mpYMol-yFJUjh7Pp58-7" value="&lt;font style=&quot;font-size: 36px;&quot;&gt;16^2, 29^2&lt;/font&gt;" style="shape=parallelogram;perimeter=parallelogramPerimeter;whiteSpace=wrap;html=1;fixedSize=1;rotation=0;" vertex="1" parent="1">
          <mxGeometry x="-440" y="500" width="586" height="240" as="geometry" />
        </mxCell>
        <mxCell id="7OIDryC-Md_JNg6_eW2P-2" value="2" style="shape=parallelogram;perimeter=parallelogramPerimeter;whiteSpace=wrap;html=1;fixedSize=1;" vertex="1" parent="1">
          <mxGeometry x="2220" y="1030" width="570" height="230" as="geometry" />
        </mxCell>
        <mxCell id="7OIDryC-Md_JNg6_eW2P-3" value="&lt;font style=&quot;font-size: 48px;&quot;&gt;&lt;b&gt;End&lt;/b&gt;&lt;/font&gt;" style="ellipse;whiteSpace=wrap;html=1;" vertex="1" parent="1">
          <mxGeometry x="-450" y="2080" width="390" height="380" as="geometry" />
        </mxCell>
        <mxCell id="7OIDryC-Md_JNg6_eW2P-5" value="Text" style="text;html=1;align=center;verticalAlign=middle;resizable=0;points=[];autosize=1;strokeColor=none;fillColor=none;" vertex="1" parent="1">
          <mxGeometry x="2080" y="920" width="50" height="30" as="geometry" />
        </mxCell>
        <mxCell id="7OIDryC-Md_JNg6_eW2P-6" value="Text" style="text;html=1;align=center;verticalAlign=middle;resizable=0;points=[];autosize=1;strokeColor=none;fillColor=none;" vertex="1" parent="1">
          <mxGeometry x="2010" y="880" width="50" height="30" as="geometry" />
        </mxCell>
        <mxCell id="7OIDryC-Md_JNg6_eW2P-7" value="Text" style="text;html=1;align=center;verticalAlign=middle;resizable=0;points=[];autosize=1;strokeColor=none;fillColor=none;" vertex="1" parent="1">
          <mxGeometry x="1890" y="858" width="50" height="30" as="geometry" />
        </mxCell>
        <mxCell id="7OIDryC-Md_JNg6_eW2P-8" value="Text" style="text;html=1;align=center;verticalAlign=middle;resizable=0;points=[];autosize=1;strokeColor=none;fillColor=none;" vertex="1" parent="1">
          <mxGeometry x="1176" y="458" width="50" height="30" as="geometry" />
        </mxCell>
        <mxCell id="7OIDryC-Md_JNg6_eW2P-9" value="" style="ellipse;whiteSpace=wrap;html=1;" vertex="1" parent="1">
          <mxGeometry x="2640" y="2010" width="80" height="80" as="geometry" />
        </mxCell>
        <mxCell id="7OIDryC-Md_JNg6_eW2P-10" value="Text" style="text;html=1;align=center;verticalAlign=middle;resizable=0;points=[];autosize=1;strokeColor=none;fillColor=none;" vertex="1" parent="1">
          <mxGeometry x="2146" y="1998" width="50" height="30" as="geometry" />
        </mxCell>
        <mxCell id="7OIDryC-Md_JNg6_eW2P-11" value="Text" style="text;html=1;align=center;verticalAlign=middle;resizable=0;points=[];autosize=1;strokeColor=none;fillColor=none;" vertex="1" parent="1">
          <mxGeometry x="2976" y="5640" width="50" height="30" as="geometry" />
        </mxCell>
        <mxCell id="7OIDryC-Md_JNg6_eW2P-12" value="Text" style="text;html=1;align=center;verticalAlign=middle;resizable=0;points=[];autosize=1;strokeColor=none;fillColor=none;" vertex="1" parent="1">
          <mxGeometry x="3026" y="5655" width="50" height="30" as="geometry" />
        </mxCell>
        <mxCell id="7OIDryC-Md_JNg6_eW2P-13" value="Text" style="text;html=1;align=center;verticalAlign=middle;resizable=0;points=[];autosize=1;strokeColor=none;fillColor=none;" vertex="1" parent="1">
          <mxGeometry x="4336" y="6288" width="50" height="30" as="geometry" />
        </mxCell>
        <mxCell id="7OIDryC-Md_JNg6_eW2P-14" value="Text" style="text;html=1;align=center;verticalAlign=middle;resizable=0;points=[];autosize=1;strokeColor=none;fillColor=none;" vertex="1" parent="1">
          <mxGeometry x="3276" y="6065" width="50" height="30" as="geometry" />
        </mxCell>
        <mxCell id="7OIDryC-Md_JNg6_eW2P-15" value="Text" style="text;html=1;align=center;verticalAlign=middle;resizable=0;points=[];autosize=1;strokeColor=none;fillColor=none;" vertex="1" parent="1">
          <mxGeometry x="4096" y="7638" width="50" height="30" as="geometry" />
        </mxCell>
        <mxCell id="7OIDryC-Md_JNg6_eW2P-16" value="Text" style="text;html=1;align=center;verticalAlign=middle;resizable=0;points=[];autosize=1;strokeColor=none;fillColor=none;" vertex="1" parent="1">
          <mxGeometry x="4096" y="7638" width="50" height="30" as="geometry" />
        </mxCell>
        <mxCell id="SZDoWi0iCO9QHmgN1QgY-1" value="Text" style="text;html=1;align=center;verticalAlign=middle;resizable=0;points=[];autosize=1;strokeColor=none;fillColor=none;" vertex="1" parent="1">
          <mxGeometry x="-624" y="88" width="50" height="30" as="geometry" />
        </mxCell>
        <mxCell id="SZDoWi0iCO9QHmgN1QgY-2" value="Text" style="text;html=1;align=center;verticalAlign=middle;resizable=0;points=[];autosize=1;strokeColor=none;fillColor=none;" vertex="1" parent="1">
          <mxGeometry x="1526" y="428" width="50" height="30" as="geometry" />
        </mxCell>
        <mxCell id="SZDoWi0iCO9QHmgN1QgY-3" value="" style="edgeStyle=none;orthogonalLoop=1;jettySize=auto;html=1;rounded=0;" edge="1" parent="1" source="02mpYMol-yFJUjh7Pp58-3" target="02mpYMol-yFJUjh7Pp58-7">
          <mxGeometry width="100" relative="1" as="geometry">
            <mxPoint x="-120" y="290" as="sourcePoint" />
            <mxPoint x="-170" y="490" as="targetPoint" />
            <Array as="points" />
          </mxGeometry>
        </mxCell>
        <mxCell id="SZDoWi0iCO9QHmgN1QgY-6" value="Text" style="edgeLabel;html=1;align=center;verticalAlign=middle;resizable=0;points=[];" connectable="0" vertex="1" parent="SZDoWi0iCO9QHmgN1QgY-3">
          <mxGeometry x="-0.4805" y="-28" relative="1" as="geometry">
            <mxPoint x="-2" y="-6" as="offset" />
          </mxGeometry>
        </mxCell>
        <mxCell id="SZDoWi0iCO9QHmgN1QgY-4" value="" style="edgeStyle=none;orthogonalLoop=1;jettySize=auto;html=1;rounded=0;" edge="1" parent="1">
          <mxGeometry width="100" relative="1" as="geometry">
            <mxPoint x="1370" y="410" as="sourcePoint" />
            <mxPoint x="1414.4218964865613" y="245.6160246347215" as="targetPoint" />
            <Array as="points">
              <mxPoint x="1410" y="210" />
            </Array>
          </mxGeometry>
        </mxCell>
        <mxCell id="02mpYMol-yFJUjh7Pp58-3" value="&lt;font style=&quot;font-size: 72px;&quot;&gt;Start&lt;/font&gt;" style="ellipse;whiteSpace=wrap;html=1;rotation=1;" vertex="1" parent="1">
          <mxGeometry x="-334.5" y="-320" width="375" height="369.21" as="geometry" />
        </mxCell>
        <mxCell id="SZDoWi0iCO9QHmgN1QgY-5" value="" style="shape=parallelogram;perimeter=parallelogramPerimeter;whiteSpace=wrap;html=1;fixedSize=1;size=-380;" vertex="1" parent="1">
          <mxGeometry x="1916" y="1100" width="510" height="60" as="geometry" />
        </mxCell>
        <mxCell id="SZDoWi0iCO9QHmgN1QgY-7" value="" style="edgeStyle=none;orthogonalLoop=1;jettySize=auto;html=1;endArrow=classic;startArrow=classic;endSize=8;startSize=8;rounded=0;exitX=0.5;exitY=1;exitDx=0;exitDy=0;" edge="1" parent="1" source="02mpYMol-yFJUjh7Pp58-2">
          <mxGeometry width="100" relative="1" as="geometry">
            <mxPoint x="-120" y="1350" as="sourcePoint" />
            <mxPoint x="-200" y="1520" as="targetPoint" />
            <Array as="points" />
          </mxGeometry>
        </mxCell>
        <mxCell id="SZDoWi0iCO9QHmgN1QgY-8" value="&lt;font style=&quot;font-size: 48px;&quot;&gt;&lt;br&gt;Total Sum: 1097&lt;br&gt;&lt;/font&gt;" style="shape=parallelogram;perimeter=parallelogramPerimeter;whiteSpace=wrap;html=1;fixedSize=1;" vertex="1" parent="1">
          <mxGeometry x="-500" y="1530" width="590" height="260" as="geometry" />
        </mxCell>
        <mxCell id="SZDoWi0iCO9QHmgN1QgY-9" value="" style="edgeStyle=none;orthogonalLoop=1;jettySize=auto;html=1;rounded=0;entryX=0.5;entryY=0;entryDx=0;entryDy=0;" edge="1" parent="1" source="SZDoWi0iCO9QHmgN1QgY-8" target="7OIDryC-Md_JNg6_eW2P-3">
          <mxGeometry width="100" relative="1" as="geometry">
            <mxPoint x="-280" y="1880" as="sourcePoint" />
            <mxPoint x="-240" y="2000" as="targetPoint" />
            <Array as="points" />
          </mxGeometry>
        </mxCell>
        <mxCell id="SZDoWi0iCO9QHmgN1QgY-10" value="" style="shape=step;perimeter=stepPerimeter;whiteSpace=wrap;html=1;fixedSize=1;" vertex="1" parent="1">
          <mxGeometry x="450" y="2160" width="120" height="80" as="geometry" />
        </mxCell>
        <mxCell id="SZDoWi0iCO9QHmgN1QgY-11" value="" style="shape=step;perimeter=stepPerimeter;whiteSpace=wrap;html=1;fixedSize=1;" vertex="1" parent="1">
          <mxGeometry x="550" y="2170" width="120" height="80" as="geometry" />
        </mxCell>
      </root>
    </mxGraphModel>
  </diagram>
</mxfile>
